HIERARCHY
ROOT Hips
{
 OFFSET 0.000000 0.000000 0.000000
 CHANNELS 6 Xposition Yposition Zposition Yrotation Xrotation Zrotation
 JOINT Chest
 {
  OFFSET 0.000000 9.585900 0.002600
  CHANNELS 3 Yrotation Xrotation Zrotation
  JOINT Chest2
  {
   OFFSET 0.000000 9.601200 -0.005300
   CHANNELS 3 Yrotation Xrotation Zrotation
   JOINT Chest3
   {
    OFFSET 0.000000 9.561800 0.000000
    CHANNELS 3 Yrotation Xrotation Zrotation
    JOINT Chest4
    {
     OFFSET 0.000000 9.552100 0.000000
     CHANNELS 3 Yrotation Xrotation Zrotation
     JOINT Neck
     {
      OFFSET 0.000000 14.453000 0.000000
      CHANNELS 3 Yrotation Xrotation Zrotation
      JOINT Head
      {
       OFFSET 0.000000 8.936500 -0.011300
       CHANNELS 3 Yrotation Xrotation Zrotation
       End Site
       {
        OFFSET 0.000000 17.073600 -0.006000
       }
      }
     }
     JOINT RightCollar
     {
      OFFSET -2.921100 9.558500 0.000000
      CHANNELS 3 Yrotation Xrotation Zrotation
      JOINT RightShoulder
      {
       OFFSET -13.519700 0.000000 0.000000
       CHANNELS 3 Yrotation Xrotation Zrotation
       JOINT RightElbow
       {
        OFFSET 0.000000 -29.696600 0.000000
        CHANNELS 3 Yrotation Xrotation Zrotation
        JOINT RightWrist
        {
         OFFSET 0.000000 -24.004700 0.000000
         CHANNELS 3 Yrotation Xrotation Zrotation
         End Site
         {
          OFFSET 0.000000 -17.728500 0.000000
         }
        }
       }
      }
     }
     JOINT LeftCollar
     {
      OFFSET 2.921100 9.558500 0.000000
      CHANNELS 3 Yrotation Xrotation Zrotation
      JOINT LeftShoulder
      {
       OFFSET 13.519700 0.000000 0.000000
       CHANNELS 3 Yrotation Xrotation Zrotation
       JOINT LeftElbow
       {
        OFFSET 0.000000 -29.696600 0.000000
        CHANNELS 3 Yrotation Xrotation Zrotation
        JOINT LeftWrist
        {
         OFFSET 0.000000 -24.004700 0.000000
         CHANNELS 3 Yrotation Xrotation Zrotation
         End Site
         {
          OFFSET 0.000000 -17.728500 0.000000
         }
        }
       }
      }
     }
    }
   }
  }
 }
 JOINT RightHip
 {
  OFFSET -7.771700 -0.012900 -0.001300
  CHANNELS 3 Yrotation Xrotation Zrotation
  JOINT RightKnee
  {
   OFFSET 0.000000 -40.869800 0.001200
   CHANNELS 3 Yrotation Xrotation Zrotation
   JOINT RightAnkle
   {
    OFFSET 0.000000 -39.717900 0.002100
    CHANNELS 3 Yrotation Xrotation Zrotation
    JOINT RightToe
    {
     OFFSET 0.000000 -4.965400 11.033500
     CHANNELS 3 Yrotation Xrotation Zrotation
     End Site
     {
      OFFSET 0.000000 -1.423100 5.872300
     }
    }
   }
  }
 }
 JOINT LeftHip
 {
  OFFSET 7.771700 -0.012900 -0.001300
  CHANNELS 3 Yrotation Xrotation Zrotation
  JOINT LeftKnee
  {
   OFFSET 0.000000 -40.869800 0.001200
   CHANNELS 3 Yrotation Xrotation Zrotation
   JOINT LeftAnkle
   {
    OFFSET 0.000000 -39.717900 0.002100
    CHANNELS 3 Yrotation Xrotation Zrotation
    JOINT LeftToe
    {
     OFFSET 0.000000 -4.965400 11.033500
     CHANNELS 3 Yrotation Xrotation Zrotation
     End Site
     {
      OFFSET 0.000000 -1.423100 5.872300
     }
    }
   }
  }
 }
}
MOTION
Frames: 7
Frame Time: 0.008333
-214.359741 57.954703 26.078606 174.950634 -49.711544 -3.424625 4.522337 23.126511 3.485974 2.306415 13.282171 1.792720 2.960394 16.524815 2.335515 2.299252 13.242287 1.787872 1.944598 22.313239 4.683310 2.231384 5.670250 7.923558 1.738402 3.754246 0.778943 0.893183 -17.693514 -11.978433 -22.878523 -73.080801 54.712783 26.955503 18.141303 -8.098950 -10.439541 2.889807 -0.428327 2.093286 -32.602142 1.370338 132.907653 -71.620116 -147.552860 -11.313337 -5.914722 11.052948 4.112907 -22.238028 -2.367647 -37.164417 73.385952 -39.486919 5.052141 -12.188081 10.938284 0.006708 0.006748 0.118843 -4.945532 -21.428626 9.613138 54.522321 78.950672 53.040137 4.638852 -15.442868 -16.624880 0.016854 0.134517 0.003120
-214.350732 57.957454 26.079450 174.955669 -49.739008 -3.430005 4.515375 23.107841 3.486467 2.304563 13.290470 1.791412 2.956007 16.510384 2.331911 2.303549 13.273057 1.791927 1.949944 22.298412 4.685246 2.266982 5.659212 7.939665 1.745485 3.725067 0.775809 0.884273 -17.655793 -11.966686 -22.867173 -73.069300 54.686718 26.946607 18.126749 -8.090222 -10.419990 2.887158 -0.429279 2.226607 -32.537753 1.289737 133.045296 -71.574743 -147.754026 -11.374929 -5.877093 11.019072 4.094679 -22.208572 -2.346562 -37.054453 73.413989 -39.388422 5.017899 -12.235910 10.903709 0.042668 -0.012517 0.104163 -4.950081 -21.400435 9.620080 54.503851 78.956726 53.018187 4.647277 -15.438275 -16.623921 0.009839 0.131818 0.001073
-214.341138 57.960888 26.079660 174.966401 -49.772715 -3.442484 4.510460 23.122424 3.492801 2.296814 13.239811 1.786060 2.960155 16.547474 2.334742 2.303370 13.283889 1.793228 1.956506 22.283770 4.685843 2.279002 5.679660 7.947192 1.755021 3.696319 0.768021 0.863452 -17.652974 -11.938940 -22.772567 -73.032309 54.587199 26.912205 18.120240 -8.109337 -10.391195 2.870239 -0.429953 2.353406 -32.464261 1.215481 133.133734 -71.532410 -147.926031 -11.418341 -5.833572 10.983492 4.066361 -22.173901 -2.319690 -36.807290 73.477977 -39.156439 4.917303 -12.278447 10.866221 0.059293 -0.010596 0.105735 -4.959373 -21.365771 9.629191 54.488186 78.961857 52.999598 4.652758 -15.433231 -16.622416 0.002281 0.128445 -0.002403
-214.332780 57.966032 26.078047 174.964687 -49.821786 -3.437481 4.511311 23.152533 3.491992 2.292640 13.209588 1.782692 2.964526 16.585708 2.338241 2.297874 13.247930 1.785920 1.968817 22.294609 4.691907 2.298984 5.695996 7.954329 1.767525 3.693426 0.763749 0.835876 -17.688159 -11.891364 -22.560100 -72.969016 54.392195 26.907438 18.118155 -8.111650 -10.376982 2.904455 -0.432791 2.489183 -32.418058 1.151598 133.213085 -71.485732 -148.086444 -11.413514 -5.794530 10.942424 4.047610 -22.121465 -2.298006 -36.737098 73.498149 -39.102876 4.886169 -12.329433 10.831986 0.066835 -0.004082 0.109646 -4.955699 -21.315194 9.628045 54.492236 78.963516 52.998060 4.652610 -15.425805 -16.617730 -0.006185 0.120431 -0.007385
-214.324769 57.966861 26.079827 174.964713 -49.838424 -3.434583 4.501549 23.097550 3.486437 2.296577 13.242419 1.782704 2.958536 16.583282 2.336165 2.296992 13.245146 1.783735 1.985874 22.302273 4.696515 2.326592 5.706152 7.962245 1.778241 3.713242 0.765075 0.832619 -17.703015 -11.870556 -22.454281 -72.940018 54.267769 26.904494 18.108881 -8.099806 -10.341477 2.887057 -0.441441 2.589501 -32.323002 1.108616 133.293861 -71.433562 -148.240188 -11.406093 -5.750917 10.901414 4.020717 -22.104372 -2.277730 -36.697740 73.513897 -39.082858 4.867330 -12.390744 10.791762 0.067172 0.012010 0.117875 -4.956814 -21.297753 9.630050 54.507810 78.962155 53.008706 4.651527 -15.429492 -16.616088 -0.015157 0.124248 -0.009890
-214.316305 57.969689 26.079699 174.968383 -49.872161 -3.437834 4.502075 23.112442 3.489453 2.299726 13.220521 1.781736 2.957482 16.537540 2.328987 2.296623 13.240129 1.781969 2.002316 22.353620 4.714435 2.338863 5.725067 7.972855 1.780279 3.778786 0.779602 0.831726 -17.717175 -11.850447 -22.323938 -72.923278 54.117194 26.887287 18.103822 -8.085322 -10.333037 2.945053 -0.441597 2.701730 -32.256981 1.067485 133.372448 -71.378935 -148.384606 -11.430621 -5.688974 10.852104 3.952492 -22.070532 -2.230246 -36.669981 73.513546 -39.112209 4.846947 -12.434831 10.758824 0.074927 0.033016 0.134693 -4.960915 -21.261990 9.633721 54.509726 78.964759 53.004754 4.657822 -15.430959 -16.615230 -0.024584 0.125238 -0.012467
-214.309623 57.972594 26.078986 174.977364 -49.908115 -3.436387 4.496545 23.129861 3.483262 2.307010 13.199226 1.781775 2.958419 16.535610 2.327756 2.297446 13.238633 1.780965 2.014591 22.357618 4.722613 2.358950 5.732151 7.984289 1.785235 3.774514 0.785635 0.818045 -17.689839 -11.833185 -22.227740 -72.917457 53.998780 26.877595 18.095861 -8.077810 -10.335561 2.972542 -0.436035 2.819949 -32.209380 1.026854 133.364946 -71.331709 -148.463487 -11.540741 -5.598847 10.788022 3.925345 -22.033729 -2.222809 -36.683591 73.520962 -39.137880 4.852748 -12.481253 10.723465 0.067288 0.048990 0.146184 -4.965740 -21.225184 9.628191 54.509480 78.969246 52.998478 4.662243 -15.430522 -16.616181 -0.031063 0.123473 -0.013113
